<svg width="48" height="49" viewBox="0 0 48 49" fill="none" xmlns="http://www.w3.org/2000/svg">
<path fill-rule="evenodd" clip-rule="evenodd" d="M21.4029 15.592C22.2825 15.7578 23.107 16.1396 23.8024 16.703C24.4978 17.2663 25.0424 17.9937 25.3872 18.8196C25.7319 19.6456 25.8661 20.5442 25.7775 21.4348C25.689 22.3254 25.3806 23.1801 24.8799 23.922L38.7139 34.66C39.1645 34.4266 39.6807 34.3523 40.1788 34.4492C40.6769 34.5462 41.1276 34.8086 41.4577 35.194C41.7878 35.5794 41.978 36.065 41.9973 36.572C42.0167 37.0791 41.864 37.5778 41.5642 37.9872C41.2644 38.3966 40.835 38.6926 40.3458 38.8272C39.8565 38.9618 39.3362 38.9271 38.8691 38.7286C38.4021 38.5302 38.0159 38.1798 37.7731 37.7342C37.5304 37.2886 37.4454 36.774 37.5319 36.274L23.4619 25.352C22.7994 25.806 22.0439 26.1066 21.2505 26.2317C20.4571 26.3568 19.6458 26.3033 18.8757 26.0752C18.1055 25.847 17.396 25.45 16.7988 24.9129C16.2015 24.3759 15.7316 23.7124 15.4232 22.9707C15.1149 22.2291 14.9758 21.428 15.0162 20.6258C15.0567 19.8236 15.2755 19.0405 15.6569 18.3336C16.0383 17.6268 16.5725 17.0138 17.2207 16.5396C17.8689 16.0653 18.6148 15.7416 19.4039 15.592L19.4019 6.5H21.4019V15.592H21.4029ZM22.2019 20.9C22.2019 21.1364 22.1554 21.3704 22.0649 21.5888C21.9745 21.8072 21.8419 22.0056 21.6747 22.1728C21.5076 22.3399 21.3092 22.4725 21.0908 22.563C20.8724 22.6534 20.6383 22.7 20.4019 22.7C20.1656 22.7 19.9315 22.6534 19.7131 22.563C19.4947 22.4725 19.2963 22.3399 19.1292 22.1728C18.962 22.0056 18.8294 21.8072 18.739 21.5888C18.6485 21.3704 18.6019 21.1364 18.6019 20.9C18.6019 20.4226 18.7916 19.9648 19.1292 19.6272C19.4667 19.2896 19.9246 19.1 20.4019 19.1C20.8793 19.1 21.3372 19.2896 21.6747 19.6272C22.0123 19.9648 22.2019 20.4226 22.2019 20.9Z" fill="#0560FA"/>
<path d="M27.626 20.884C27.6263 19.5007 27.2282 18.1467 26.4793 16.9837C25.7304 15.8207 24.6624 14.898 23.403 14.326V6.60599C27.692 6.98299 29.92 8.33399 31.915 10.183C32.015 10.277 32.115 10.368 32.211 10.456V10.457C33.061 11.237 33.737 11.858 34.086 12.788L38.32 24.06C38.4335 24.3625 38.4719 24.6881 38.432 25.0087C38.3921 25.3294 38.2751 25.6356 38.091 25.9011C37.9069 26.1666 37.6611 26.3836 37.3748 26.5333C37.0885 26.6831 36.7701 26.7612 36.447 26.761H34.816V29.1L27.241 23.217C27.4974 22.4663 27.6279 21.6783 27.627 20.885L27.626 20.884ZM17.403 14.346V6.74099C8.413 8.09399 6 14.801 6 18.475C6 24.242 9.683 28.715 11.41 30.508V42.5H28.522V35.988H32.815C33.117 35.988 33.405 35.92 33.661 35.8L23.076 27.58C21.3265 28.3019 19.3631 28.306 17.6106 27.5914C15.8581 26.8767 14.4575 25.5007 13.7118 23.7612C12.9662 22.0217 12.9354 20.0585 13.6262 18.2965C14.317 16.5344 15.6738 15.1152 17.403 14.346Z" fill="#0560FA"/>
</svg>
